<mxfile host="app.diagrams.net" modified="2022-08-26T15:27:54.435Z" agent="5.0 (Windows NT 10.0; Win64; x64) AppleWebKit/537.36 (KHTML, like Gecko) Chrome/104.0.0.0 Safari/537.36" etag="fDj5FpCUf5JCU-FMVB97" version="20.2.7" type="github">
  <diagram id="A-veEHRM2BNjV3C6IaXB" name="Página-1">
    <mxGraphModel dx="955" dy="913" grid="1" gridSize="10" guides="1" tooltips="1" connect="1" arrows="1" fold="1" page="1" pageScale="1" pageWidth="827" pageHeight="1169" math="0" shadow="0">
      <root>
        <mxCell id="0" />
        <mxCell id="1" parent="0" />
        <mxCell id="4XPwBnDbkarfqxUBHr4E-8" value="" style="edgeStyle=orthogonalEdgeStyle;rounded=0;orthogonalLoop=1;jettySize=auto;html=1;" parent="1" source="4XPwBnDbkarfqxUBHr4E-1" target="4XPwBnDbkarfqxUBHr4E-2" edge="1">
          <mxGeometry relative="1" as="geometry" />
        </mxCell>
        <mxCell id="4XPwBnDbkarfqxUBHr4E-1" value="Inicio" style="ellipse;whiteSpace=wrap;html=1;fillColor=#dae8fc;strokeColor=#6c8ebf;" parent="1" vertex="1">
          <mxGeometry x="70" y="20" width="120" height="80" as="geometry" />
        </mxCell>
        <mxCell id="4XPwBnDbkarfqxUBHr4E-9" value="" style="edgeStyle=orthogonalEdgeStyle;rounded=0;orthogonalLoop=1;jettySize=auto;html=1;" parent="1" source="4XPwBnDbkarfqxUBHr4E-2" target="4XPwBnDbkarfqxUBHr4E-3" edge="1">
          <mxGeometry relative="1" as="geometry" />
        </mxCell>
        <mxCell id="4XPwBnDbkarfqxUBHr4E-2" value="num_mist, num_player, vidas" style="rounded=0;whiteSpace=wrap;html=1;fillColor=#f8cecc;strokeColor=#b85450;" parent="1" vertex="1">
          <mxGeometry x="70" y="130" width="120" height="60" as="geometry" />
        </mxCell>
        <mxCell id="4XPwBnDbkarfqxUBHr4E-10" value="" style="edgeStyle=orthogonalEdgeStyle;rounded=0;orthogonalLoop=1;jettySize=auto;html=1;" parent="1" source="4XPwBnDbkarfqxUBHr4E-3" target="4XPwBnDbkarfqxUBHr4E-4" edge="1">
          <mxGeometry relative="1" as="geometry" />
        </mxCell>
        <mxCell id="4XPwBnDbkarfqxUBHr4E-3" value="num_mist.random (0,10)" style="shape=parallelogram;perimeter=parallelogramPerimeter;whiteSpace=wrap;html=1;fixedSize=1;fillColor=#d5e8d4;strokeColor=#82b366;" parent="1" vertex="1">
          <mxGeometry x="70" y="220" width="120" height="60" as="geometry" />
        </mxCell>
        <mxCell id="4XPwBnDbkarfqxUBHr4E-11" value="" style="edgeStyle=orthogonalEdgeStyle;rounded=0;orthogonalLoop=1;jettySize=auto;html=1;" parent="1" source="4XPwBnDbkarfqxUBHr4E-4" target="4XPwBnDbkarfqxUBHr4E-5" edge="1">
          <mxGeometry relative="1" as="geometry" />
        </mxCell>
        <mxCell id="4XPwBnDbkarfqxUBHr4E-4" value="vidas = 4" style="shape=parallelogram;perimeter=parallelogramPerimeter;whiteSpace=wrap;html=1;fixedSize=1;fillColor=#d5e8d4;strokeColor=#82b366;" parent="1" vertex="1">
          <mxGeometry x="70" y="310" width="120" height="60" as="geometry" />
        </mxCell>
        <mxCell id="4XPwBnDbkarfqxUBHr4E-12" value="" style="edgeStyle=orthogonalEdgeStyle;rounded=0;orthogonalLoop=1;jettySize=auto;html=1;" parent="1" source="4XPwBnDbkarfqxUBHr4E-5" target="4XPwBnDbkarfqxUBHr4E-7" edge="1">
          <mxGeometry relative="1" as="geometry" />
        </mxCell>
        <mxCell id="4XPwBnDbkarfqxUBHr4E-5" value="&quot;Bienvenido al - Número Secreto -&quot;" style="shape=document;whiteSpace=wrap;html=1;boundedLbl=1;fillColor=#e1d5e7;strokeColor=#9673a6;" parent="1" vertex="1">
          <mxGeometry x="70" y="400" width="120" height="80" as="geometry" />
        </mxCell>
        <mxCell id="4XPwBnDbkarfqxUBHr4E-38" value="" style="edgeStyle=orthogonalEdgeStyle;rounded=0;orthogonalLoop=1;jettySize=auto;html=1;" parent="1" source="4XPwBnDbkarfqxUBHr4E-7" target="4XPwBnDbkarfqxUBHr4E-15" edge="1">
          <mxGeometry relative="1" as="geometry" />
        </mxCell>
        <mxCell id="4XPwBnDbkarfqxUBHr4E-7" value="&quot;Adivina el número entre 1 y 10&quot;" style="shape=document;whiteSpace=wrap;html=1;boundedLbl=1;fillColor=#e1d5e7;strokeColor=#9673a6;" parent="1" vertex="1">
          <mxGeometry x="70" y="505" width="120" height="80" as="geometry" />
        </mxCell>
        <mxCell id="4XPwBnDbkarfqxUBHr4E-25" value="" style="edgeStyle=orthogonalEdgeStyle;rounded=0;orthogonalLoop=1;jettySize=auto;html=1;" parent="1" source="4XPwBnDbkarfqxUBHr4E-14" target="4XPwBnDbkarfqxUBHr4E-17" edge="1">
          <mxGeometry relative="1" as="geometry" />
        </mxCell>
        <mxCell id="4XPwBnDbkarfqxUBHr4E-42" value="" style="edgeStyle=orthogonalEdgeStyle;rounded=0;orthogonalLoop=1;jettySize=auto;html=1;" parent="1" source="4XPwBnDbkarfqxUBHr4E-14" target="4XPwBnDbkarfqxUBHr4E-39" edge="1">
          <mxGeometry relative="1" as="geometry" />
        </mxCell>
        <mxCell id="4XPwBnDbkarfqxUBHr4E-14" value="vidas=/=0 o num_mist=/=num_player y 0&lt;=num_player&lt;=10" style="rhombus;whiteSpace=wrap;html=1;fillColor=#fff2cc;strokeColor=#d6b656;" parent="1" vertex="1">
          <mxGeometry x="1270" y="150" width="160" height="90" as="geometry" />
        </mxCell>
        <mxCell id="4XPwBnDbkarfqxUBHr4E-15" value="1" style="ellipse;whiteSpace=wrap;html=1;aspect=fixed;fillColor=#dae8fc;strokeColor=#6c8ebf;" parent="1" vertex="1">
          <mxGeometry x="90" y="600" width="80" height="80" as="geometry" />
        </mxCell>
        <mxCell id="4XPwBnDbkarfqxUBHr4E-24" value="" style="edgeStyle=orthogonalEdgeStyle;rounded=0;orthogonalLoop=1;jettySize=auto;html=1;" parent="1" source="4XPwBnDbkarfqxUBHr4E-16" target="4XPwBnDbkarfqxUBHr4E-14" edge="1">
          <mxGeometry relative="1" as="geometry" />
        </mxCell>
        <mxCell id="4XPwBnDbkarfqxUBHr4E-16" value="1" style="ellipse;whiteSpace=wrap;html=1;aspect=fixed;fillColor=#dae8fc;strokeColor=#6c8ebf;" parent="1" vertex="1">
          <mxGeometry x="1310" y="40" width="80" height="80" as="geometry" />
        </mxCell>
        <mxCell id="4XPwBnDbkarfqxUBHr4E-26" value="" style="edgeStyle=orthogonalEdgeStyle;rounded=0;orthogonalLoop=1;jettySize=auto;html=1;" parent="1" source="4XPwBnDbkarfqxUBHr4E-17" target="4XPwBnDbkarfqxUBHr4E-18" edge="1">
          <mxGeometry relative="1" as="geometry" />
        </mxCell>
        <mxCell id="4XPwBnDbkarfqxUBHr4E-17" value="&quot;Ingresa tu número&quot;" style="shape=document;whiteSpace=wrap;html=1;boundedLbl=1;fillColor=#e1d5e7;strokeColor=#9673a6;" parent="1" vertex="1">
          <mxGeometry x="1290" y="260" width="120" height="80" as="geometry" />
        </mxCell>
        <mxCell id="4XPwBnDbkarfqxUBHr4E-27" value="" style="edgeStyle=orthogonalEdgeStyle;rounded=0;orthogonalLoop=1;jettySize=auto;html=1;" parent="1" source="4XPwBnDbkarfqxUBHr4E-18" target="4XPwBnDbkarfqxUBHr4E-19" edge="1">
          <mxGeometry relative="1" as="geometry" />
        </mxCell>
        <mxCell id="4XPwBnDbkarfqxUBHr4E-18" value="num_player" style="shape=parallelogram;perimeter=parallelogramPerimeter;whiteSpace=wrap;html=1;fixedSize=1;fillColor=#d5e8d4;strokeColor=#82b366;" parent="1" vertex="1">
          <mxGeometry x="1290" y="360" width="120" height="60" as="geometry" />
        </mxCell>
        <mxCell id="4XPwBnDbkarfqxUBHr4E-28" value="No" style="edgeStyle=orthogonalEdgeStyle;rounded=0;orthogonalLoop=1;jettySize=auto;html=1;" parent="1" source="4XPwBnDbkarfqxUBHr4E-19" target="4XPwBnDbkarfqxUBHr4E-20" edge="1">
          <mxGeometry relative="1" as="geometry" />
        </mxCell>
        <mxCell id="4XPwBnDbkarfqxUBHr4E-19" value="num_player&amp;lt;num_mist:" style="rhombus;whiteSpace=wrap;html=1;fillColor=#fff2cc;strokeColor=#d6b656;" parent="1" vertex="1">
          <mxGeometry x="1270" y="445" width="160" height="80" as="geometry" />
        </mxCell>
        <mxCell id="4XPwBnDbkarfqxUBHr4E-30" value="" style="edgeStyle=orthogonalEdgeStyle;rounded=0;orthogonalLoop=1;jettySize=auto;html=1;" parent="1" source="4XPwBnDbkarfqxUBHr4E-20" target="4XPwBnDbkarfqxUBHr4E-22" edge="1">
          <mxGeometry relative="1" as="geometry" />
        </mxCell>
        <mxCell id="4XPwBnDbkarfqxUBHr4E-20" value="&quot;El número es más pequeño&quot;" style="shape=document;whiteSpace=wrap;html=1;boundedLbl=1;fillColor=#e1d5e7;strokeColor=#9673a6;" parent="1" vertex="1">
          <mxGeometry x="1290" y="560" width="120" height="80" as="geometry" />
        </mxCell>
        <mxCell id="4XPwBnDbkarfqxUBHr4E-31" value="" style="edgeStyle=orthogonalEdgeStyle;rounded=0;orthogonalLoop=1;jettySize=auto;html=1;" parent="1" source="4XPwBnDbkarfqxUBHr4E-21" target="4XPwBnDbkarfqxUBHr4E-22" edge="1">
          <mxGeometry relative="1" as="geometry" />
        </mxCell>
        <mxCell id="4XPwBnDbkarfqxUBHr4E-21" value="&quot;El número es más grande&quot;" style="shape=document;whiteSpace=wrap;html=1;boundedLbl=1;fillColor=#e1d5e7;strokeColor=#9673a6;" parent="1" vertex="1">
          <mxGeometry x="1150" y="560" width="120" height="80" as="geometry" />
        </mxCell>
        <mxCell id="4XPwBnDbkarfqxUBHr4E-32" value="" style="edgeStyle=orthogonalEdgeStyle;rounded=0;orthogonalLoop=1;jettySize=auto;html=1;" parent="1" source="4XPwBnDbkarfqxUBHr4E-22" target="4XPwBnDbkarfqxUBHr4E-23" edge="1">
          <mxGeometry relative="1" as="geometry" />
        </mxCell>
        <mxCell id="4XPwBnDbkarfqxUBHr4E-22" value="vidas = vidas-1" style="shape=parallelogram;perimeter=parallelogramPerimeter;whiteSpace=wrap;html=1;fixedSize=1;fillColor=#d5e8d4;strokeColor=#82b366;" parent="1" vertex="1">
          <mxGeometry x="1220" y="700" width="120" height="60" as="geometry" />
        </mxCell>
        <mxCell id="4XPwBnDbkarfqxUBHr4E-23" value="Mostrar (vidas, &quot; vidas restantes&quot;)" style="shape=document;whiteSpace=wrap;html=1;boundedLbl=1;fillColor=#e1d5e7;strokeColor=#9673a6;" parent="1" vertex="1">
          <mxGeometry x="1220" y="790" width="120" height="80" as="geometry" />
        </mxCell>
        <mxCell id="4XPwBnDbkarfqxUBHr4E-35" value="" style="endArrow=classic;html=1;rounded=0;entryX=0;entryY=0.5;entryDx=0;entryDy=0;exitX=0;exitY=0.5;exitDx=0;exitDy=0;" parent="1" source="4XPwBnDbkarfqxUBHr4E-23" target="4XPwBnDbkarfqxUBHr4E-14" edge="1">
          <mxGeometry width="50" height="50" relative="1" as="geometry">
            <mxPoint x="1140" y="840" as="sourcePoint" />
            <mxPoint x="1190" y="790" as="targetPoint" />
            <Array as="points">
              <mxPoint x="1140" y="830" />
              <mxPoint x="1140" y="195" />
            </Array>
          </mxGeometry>
        </mxCell>
        <mxCell id="4XPwBnDbkarfqxUBHr4E-41" value="Si" style="edgeStyle=orthogonalEdgeStyle;rounded=0;orthogonalLoop=1;jettySize=auto;html=1;" parent="1" source="4XPwBnDbkarfqxUBHr4E-39" target="4XPwBnDbkarfqxUBHr4E-40" edge="1">
          <mxGeometry relative="1" as="geometry" />
        </mxCell>
        <mxCell id="4XPwBnDbkarfqxUBHr4E-46" value="No" style="edgeStyle=orthogonalEdgeStyle;rounded=0;orthogonalLoop=1;jettySize=auto;html=1;" parent="1" source="4XPwBnDbkarfqxUBHr4E-39" target="4XPwBnDbkarfqxUBHr4E-45" edge="1">
          <mxGeometry relative="1" as="geometry" />
        </mxCell>
        <mxCell id="4XPwBnDbkarfqxUBHr4E-39" value="num_mist==&lt;br&gt;num_player" style="rhombus;whiteSpace=wrap;html=1;fillColor=#fff2cc;strokeColor=#d6b656;" parent="1" vertex="1">
          <mxGeometry x="1500" y="155" width="80" height="80" as="geometry" />
        </mxCell>
        <mxCell id="4XPwBnDbkarfqxUBHr4E-49" value="" style="edgeStyle=orthogonalEdgeStyle;rounded=0;orthogonalLoop=1;jettySize=auto;html=1;" parent="1" source="4XPwBnDbkarfqxUBHr4E-40" target="4XPwBnDbkarfqxUBHr4E-48" edge="1">
          <mxGeometry relative="1" as="geometry" />
        </mxCell>
        <mxCell id="4XPwBnDbkarfqxUBHr4E-40" value="&quot;¡Felicidades! Encontraste el - Número Secreto -&quot;" style="shape=document;whiteSpace=wrap;html=1;boundedLbl=1;fillColor=#e1d5e7;strokeColor=#9673a6;" parent="1" vertex="1">
          <mxGeometry x="1480" y="260" width="120" height="80" as="geometry" />
        </mxCell>
        <mxCell id="4XPwBnDbkarfqxUBHr4E-50" value="" style="edgeStyle=orthogonalEdgeStyle;rounded=0;orthogonalLoop=1;jettySize=auto;html=1;" parent="1" source="4XPwBnDbkarfqxUBHr4E-43" target="4XPwBnDbkarfqxUBHr4E-48" edge="1">
          <mxGeometry relative="1" as="geometry" />
        </mxCell>
        <mxCell id="4XPwBnDbkarfqxUBHr4E-43" value="&quot;Perdiste.&quot;" style="shape=document;whiteSpace=wrap;html=1;boundedLbl=1;fillColor=#e1d5e7;strokeColor=#9673a6;" parent="1" vertex="1">
          <mxGeometry x="1630" y="260" width="120" height="80" as="geometry" />
        </mxCell>
        <mxCell id="4XPwBnDbkarfqxUBHr4E-47" value="" style="edgeStyle=orthogonalEdgeStyle;rounded=0;orthogonalLoop=1;jettySize=auto;html=1;" parent="1" source="4XPwBnDbkarfqxUBHr4E-45" target="4XPwBnDbkarfqxUBHr4E-43" edge="1">
          <mxGeometry relative="1" as="geometry" />
        </mxCell>
        <mxCell id="4XPwBnDbkarfqxUBHr4E-45" value="vidas==0" style="rhombus;whiteSpace=wrap;html=1;fillColor=#fff2cc;strokeColor=#d6b656;" parent="1" vertex="1">
          <mxGeometry x="1650" y="155" width="80" height="80" as="geometry" />
        </mxCell>
        <mxCell id="4XPwBnDbkarfqxUBHr4E-52" value="" style="edgeStyle=orthogonalEdgeStyle;rounded=0;orthogonalLoop=1;jettySize=auto;html=1;" parent="1" source="4XPwBnDbkarfqxUBHr4E-48" target="4XPwBnDbkarfqxUBHr4E-51" edge="1">
          <mxGeometry relative="1" as="geometry" />
        </mxCell>
        <mxCell id="4XPwBnDbkarfqxUBHr4E-48" value="&quot;El número secreto es &quot;,num_mist" style="shape=document;whiteSpace=wrap;html=1;boundedLbl=1;fillColor=#e1d5e7;strokeColor=#9673a6;" parent="1" vertex="1">
          <mxGeometry x="1560" y="390" width="120" height="80" as="geometry" />
        </mxCell>
        <mxCell id="4XPwBnDbkarfqxUBHr4E-51" value="Fin" style="ellipse;whiteSpace=wrap;html=1;fillColor=#dae8fc;strokeColor=#6c8ebf;" parent="1" vertex="1">
          <mxGeometry x="1560" y="500" width="120" height="80" as="geometry" />
        </mxCell>
        <mxCell id="4XPwBnDbkarfqxUBHr4E-54" value="Di" style="endArrow=classic;html=1;rounded=0;entryX=0.5;entryY=0;entryDx=0;entryDy=0;exitX=0;exitY=0.5;exitDx=0;exitDy=0;" parent="1" source="4XPwBnDbkarfqxUBHr4E-19" target="4XPwBnDbkarfqxUBHr4E-21" edge="1">
          <mxGeometry width="50" height="50" relative="1" as="geometry">
            <mxPoint x="1230" y="470" as="sourcePoint" />
            <mxPoint x="1280" y="420" as="targetPoint" />
            <Array as="points">
              <mxPoint x="1210" y="485" />
            </Array>
          </mxGeometry>
        </mxCell>
        <mxCell id="VYThHRkE6rpbtCkDWIOo-7" value="" style="edgeStyle=orthogonalEdgeStyle;rounded=0;orthogonalLoop=1;jettySize=auto;html=1;" edge="1" parent="1" source="VYThHRkE6rpbtCkDWIOo-1" target="VYThHRkE6rpbtCkDWIOo-2">
          <mxGeometry relative="1" as="geometry" />
        </mxCell>
        <mxCell id="VYThHRkE6rpbtCkDWIOo-1" value="1" style="ellipse;whiteSpace=wrap;html=1;aspect=fixed;fillColor=#dae8fc;strokeColor=#6c8ebf;" vertex="1" parent="1">
          <mxGeometry x="270" y="20" width="80" height="80" as="geometry" />
        </mxCell>
        <mxCell id="VYThHRkE6rpbtCkDWIOo-8" value="" style="edgeStyle=orthogonalEdgeStyle;rounded=0;orthogonalLoop=1;jettySize=auto;html=1;" edge="1" parent="1" source="VYThHRkE6rpbtCkDWIOo-2" target="VYThHRkE6rpbtCkDWIOo-3">
          <mxGeometry relative="1" as="geometry" />
        </mxCell>
        <mxCell id="VYThHRkE6rpbtCkDWIOo-2" value="&quot;Ingresa tu número&quot;" style="shape=document;whiteSpace=wrap;html=1;boundedLbl=1;fillColor=#e1d5e7;strokeColor=#9673a6;" vertex="1" parent="1">
          <mxGeometry x="250" y="130" width="120" height="80" as="geometry" />
        </mxCell>
        <mxCell id="VYThHRkE6rpbtCkDWIOo-9" value="" style="edgeStyle=orthogonalEdgeStyle;rounded=0;orthogonalLoop=1;jettySize=auto;html=1;" edge="1" parent="1" source="VYThHRkE6rpbtCkDWIOo-3" target="VYThHRkE6rpbtCkDWIOo-4">
          <mxGeometry relative="1" as="geometry" />
        </mxCell>
        <mxCell id="VYThHRkE6rpbtCkDWIOo-3" value="num_player" style="shape=parallelogram;perimeter=parallelogramPerimeter;whiteSpace=wrap;html=1;fixedSize=1;fillColor=#d5e8d4;strokeColor=#82b366;" vertex="1" parent="1">
          <mxGeometry x="250" y="240" width="120" height="60" as="geometry" />
        </mxCell>
        <mxCell id="VYThHRkE6rpbtCkDWIOo-10" value="" style="edgeStyle=orthogonalEdgeStyle;rounded=0;orthogonalLoop=1;jettySize=auto;html=1;" edge="1" parent="1" source="VYThHRkE6rpbtCkDWIOo-4" target="VYThHRkE6rpbtCkDWIOo-5">
          <mxGeometry relative="1" as="geometry" />
        </mxCell>
        <mxCell id="VYThHRkE6rpbtCkDWIOo-11" value="" style="edgeStyle=orthogonalEdgeStyle;rounded=0;orthogonalLoop=1;jettySize=auto;html=1;" edge="1" parent="1" source="VYThHRkE6rpbtCkDWIOo-4" target="VYThHRkE6rpbtCkDWIOo-6">
          <mxGeometry relative="1" as="geometry" />
        </mxCell>
        <mxCell id="VYThHRkE6rpbtCkDWIOo-4" value="num_mis&lt;br&gt;=/=&lt;br&gt;num_player" style="rhombus;whiteSpace=wrap;html=1;fillColor=#fff2cc;strokeColor=#d6b656;" vertex="1" parent="1">
          <mxGeometry x="270" y="340" width="80" height="80" as="geometry" />
        </mxCell>
        <mxCell id="VYThHRkE6rpbtCkDWIOo-14" value="" style="edgeStyle=orthogonalEdgeStyle;rounded=0;orthogonalLoop=1;jettySize=auto;html=1;" edge="1" parent="1" source="VYThHRkE6rpbtCkDWIOo-5" target="VYThHRkE6rpbtCkDWIOo-13">
          <mxGeometry relative="1" as="geometry" />
        </mxCell>
        <mxCell id="VYThHRkE6rpbtCkDWIOo-15" value="" style="edgeStyle=orthogonalEdgeStyle;rounded=0;orthogonalLoop=1;jettySize=auto;html=1;" edge="1" parent="1" source="VYThHRkE6rpbtCkDWIOo-5" target="VYThHRkE6rpbtCkDWIOo-12">
          <mxGeometry relative="1" as="geometry" />
        </mxCell>
        <mxCell id="VYThHRkE6rpbtCkDWIOo-5" value="num_player&lt;num_mist" style="rhombus;whiteSpace=wrap;html=1;fillColor=#fff2cc;strokeColor=#d6b656;" vertex="1" parent="1">
          <mxGeometry x="270" y="450" width="80" height="80" as="geometry" />
        </mxCell>
        <mxCell id="VYThHRkE6rpbtCkDWIOo-21" style="edgeStyle=orthogonalEdgeStyle;rounded=0;orthogonalLoop=1;jettySize=auto;html=1;" edge="1" parent="1" source="VYThHRkE6rpbtCkDWIOo-6" target="VYThHRkE6rpbtCkDWIOo-16">
          <mxGeometry relative="1" as="geometry">
            <Array as="points">
              <mxPoint x="550" y="380" />
              <mxPoint x="550" y="690" />
              <mxPoint x="390" y="690" />
            </Array>
          </mxGeometry>
        </mxCell>
        <mxCell id="VYThHRkE6rpbtCkDWIOo-6" value="&quot;¡Felicidades! Encontraste el - Número Secreto -&quot;" style="shape=document;whiteSpace=wrap;html=1;boundedLbl=1;fillColor=#e1d5e7;strokeColor=#9673a6;" vertex="1" parent="1">
          <mxGeometry x="400" y="340" width="120" height="80" as="geometry" />
        </mxCell>
        <mxCell id="VYThHRkE6rpbtCkDWIOo-22" style="edgeStyle=orthogonalEdgeStyle;rounded=0;orthogonalLoop=1;jettySize=auto;html=1;entryX=0.5;entryY=0;entryDx=0;entryDy=0;" edge="1" parent="1" source="VYThHRkE6rpbtCkDWIOo-12" target="VYThHRkE6rpbtCkDWIOo-16">
          <mxGeometry relative="1" as="geometry" />
        </mxCell>
        <mxCell id="VYThHRkE6rpbtCkDWIOo-12" value="&quot;El número es más grande&quot;" style="shape=document;whiteSpace=wrap;html=1;boundedLbl=1;fillColor=#e1d5e7;strokeColor=#9673a6;" vertex="1" parent="1">
          <mxGeometry x="250" y="570" width="120" height="80" as="geometry" />
        </mxCell>
        <mxCell id="VYThHRkE6rpbtCkDWIOo-23" style="edgeStyle=orthogonalEdgeStyle;rounded=0;orthogonalLoop=1;jettySize=auto;html=1;entryX=0.5;entryY=0;entryDx=0;entryDy=0;" edge="1" parent="1" source="VYThHRkE6rpbtCkDWIOo-13" target="VYThHRkE6rpbtCkDWIOo-16">
          <mxGeometry relative="1" as="geometry" />
        </mxCell>
        <mxCell id="VYThHRkE6rpbtCkDWIOo-13" value="&quot;El número es más pequeño&quot;" style="shape=document;whiteSpace=wrap;html=1;boundedLbl=1;fillColor=#e1d5e7;strokeColor=#9673a6;" vertex="1" parent="1">
          <mxGeometry x="400" y="570" width="120" height="80" as="geometry" />
        </mxCell>
        <mxCell id="VYThHRkE6rpbtCkDWIOo-16" value="Fin" style="ellipse;whiteSpace=wrap;html=1;aspect=fixed;fillColor=#dae8fc;strokeColor=#6c8ebf;" vertex="1" parent="1">
          <mxGeometry x="350" y="730" width="80" height="80" as="geometry" />
        </mxCell>
      </root>
    </mxGraphModel>
  </diagram>
</mxfile>
